<?xml version="1.0" encoding="UTF-8" standalone="no"?>
<!DOCTYPE svg PUBLIC "-//W3C//DTD SVG 1.1//EN"
 "http://www.w3.org/Graphics/SVG/1.1/DTD/svg11.dtd">
<!-- Generated by graphviz version 14.1.3 (20260303.0454)
 -->
<!-- Title: predator&#45;prey Pages: 1 -->
<svg width="422pt" height="260pt"
 viewBox="0.00 0.00 422.00 260.00" xmlns="http://www.w3.org/2000/svg" xmlns:xlink="http://www.w3.org/1999/xlink">
<g id="graph0" class="graph" transform="scale(1 1) rotate(0) translate(4 256)">
<title>predator&#45;prey</title>
<!-- derived.predator_death -->
<g id="node1" class="node">
<title>derived.predator_death</title>
<ellipse fill="#e1bee7" stroke="black" cx="351" cy="-90" rx="47.63" ry="18"/>
<text xml:space="preserve" text-anchor="middle" x="351" y="-86.12" font-family="Helvetica,sans-Serif" font-size="10.00">predator_death</text>
</g>
<!-- tendency_predator -->
<g id="node15" class="node">
<title>tendency_predator</title>
<polygon fill="#ffcdd2" stroke="black" points="273,-36 208.78,-18 273,0 337.22,-18 273,-36"/>
<text xml:space="preserve" text-anchor="middle" x="273" y="-14.12" font-family="Helvetica,sans-Serif" font-size="10.00">d predator / dt</text>
</g>
<!-- derived.predator_death&#45;&gt;tendency_predator -->
<g id="edge16" class="edge">
<title>derived.predator_death&#45;&gt;tendency_predator</title>
<path fill="none" stroke="black" d="M333.3,-73.12C322.34,-63.28 308.14,-50.54 296.28,-39.89"/>
<polygon fill="black" stroke="black" points="298.66,-37.32 288.88,-33.25 293.98,-42.53 298.66,-37.32"/>
</g>
<!-- derived.predator_gain -->
<g id="node2" class="node">
<title>derived.predator_gain</title>
<ellipse fill="#e1bee7" stroke="black" cx="241" cy="-90" rx="44.08" ry="18"/>
<text xml:space="preserve" text-anchor="middle" x="241" y="-86.12" font-family="Helvetica,sans-Serif" font-size="10.00">predator_gain</text>
</g>
<!-- derived.predator_gain&#45;&gt;tendency_predator -->
<g id="edge15" class="edge">
<title>derived.predator_gain&#45;&gt;tendency_predator</title>
<path fill="none" stroke="black" d="M248.75,-72.05C252.48,-63.89 257.04,-53.91 261.2,-44.82"/>
<polygon fill="black" stroke="black" points="264.38,-46.28 265.35,-35.73 258.01,-43.37 264.38,-46.28"/>
</g>
<!-- derived.prey_growth -->
<g id="node3" class="node">
<title>derived.prey_growth</title>
<ellipse fill="#e1bee7" stroke="black" cx="52" cy="-90" rx="40.97" ry="18"/>
<text xml:space="preserve" text-anchor="middle" x="52" y="-86.12" font-family="Helvetica,sans-Serif" font-size="10.00">prey_growth</text>
</g>
<!-- tendency_prey -->
<g id="node14" class="node">
<title>tendency_prey</title>
<polygon fill="#ffcdd2" stroke="black" points="112,-36 61.58,-18 112,0 162.42,-18 112,-36"/>
<text xml:space="preserve" text-anchor="middle" x="112" y="-14.12" font-family="Helvetica,sans-Serif" font-size="10.00">d prey / dt</text>
</g>
<!-- derived.prey_growth&#45;&gt;tendency_prey -->
<g id="edge13" class="edge">
<title>derived.prey_growth&#45;&gt;tendency_prey</title>
<path fill="none" stroke="black" d="M65.92,-72.76C74.06,-63.27 84.44,-51.16 93.29,-40.83"/>
<polygon fill="black" stroke="black" points="95.74,-43.35 99.59,-33.48 90.42,-38.8 95.74,-43.35"/>
</g>
<!-- derived.prey_loss -->
<g id="node4" class="node">
<title>derived.prey_loss</title>
<ellipse fill="#e1bee7" stroke="black" cx="145" cy="-90" rx="34.32" ry="18"/>
<text xml:space="preserve" text-anchor="middle" x="145" y="-86.12" font-family="Helvetica,sans-Serif" font-size="10.00">prey_loss</text>
</g>
<!-- derived.prey_loss&#45;&gt;tendency_prey -->
<g id="edge14" class="edge">
<title>derived.prey_loss&#45;&gt;tendency_prey</title>
<path fill="none" stroke="black" d="M137.01,-72.05C133.06,-63.68 128.22,-53.4 123.85,-44.13"/>
<polygon fill="black" stroke="black" points="127.09,-42.81 119.66,-35.26 120.76,-45.79 127.09,-42.81"/>
</g>
<!-- parameters.alpha -->
<g id="node5" class="node">
<title>parameters.alpha</title>
<polygon fill="#ffe0b2" stroke="black" points="54,-252 0,-252 0,-216 54,-216 54,-252"/>
<text xml:space="preserve" text-anchor="middle" x="27" y="-230.12" font-family="Helvetica,sans-Serif" font-size="10.00">alpha</text>
</g>
<!-- process_0 -->
<g id="node11" class="node">
<title>process_0</title>
<path fill="#f8bbd0" stroke="black" d="M74.62,-180C74.62,-180 29.38,-180 29.38,-180 23.38,-180 17.38,-174 17.38,-168 17.38,-168 17.38,-156 17.38,-156 17.38,-150 23.38,-144 29.38,-144 29.38,-144 74.62,-144 74.62,-144 80.62,-144 86.62,-150 86.62,-156 86.62,-156 86.62,-168 86.62,-168 86.62,-174 80.62,-180 74.62,-180"/>
<text xml:space="preserve" text-anchor="middle" x="52" y="-158.12" font-family="Helvetica,sans-Serif" font-size="10.00">prey_growth</text>
</g>
<!-- parameters.alpha&#45;&gt;process_0 -->
<g id="edge2" class="edge">
<title>parameters.alpha&#45;&gt;process_0</title>
<path fill="none" stroke="black" d="M33.18,-215.7C35.87,-208.15 39.1,-199.12 42.11,-190.68"/>
<polygon fill="black" stroke="black" points="45.31,-192.12 45.38,-181.53 38.72,-189.77 45.31,-192.12"/>
</g>
<!-- parameters.beta -->
<g id="node6" class="node">
<title>parameters.beta</title>
<polygon fill="#ffe0b2" stroke="black" points="198,-252 144,-252 144,-216 198,-216 198,-252"/>
<text xml:space="preserve" text-anchor="middle" x="171" y="-230.12" font-family="Helvetica,sans-Serif" font-size="10.00">beta</text>
</g>
<!-- process_1 -->
<g id="node12" class="node">
<title>process_1</title>
<path fill="#f8bbd0" stroke="black" d="M221.88,-180C221.88,-180 190.12,-180 190.12,-180 184.12,-180 178.12,-174 178.12,-168 178.12,-168 178.12,-156 178.12,-156 178.12,-150 184.12,-144 190.12,-144 190.12,-144 221.88,-144 221.88,-144 227.88,-144 233.88,-150 233.88,-156 233.88,-156 233.88,-168 233.88,-168 233.88,-174 227.88,-180 221.88,-180"/>
<text xml:space="preserve" text-anchor="middle" x="206" y="-158.12" font-family="Helvetica,sans-Serif" font-size="10.00">predation</text>
</g>
<!-- parameters.beta&#45;&gt;process_1 -->
<g id="edge6" class="edge">
<title>parameters.beta&#45;&gt;process_1</title>
<path fill="none" stroke="black" d="M179.65,-215.7C183.47,-208.07 188.04,-198.92 192.3,-190.4"/>
<polygon fill="black" stroke="black" points="195.43,-191.97 196.77,-181.46 189.17,-188.84 195.43,-191.97"/>
</g>
<!-- parameters.delta -->
<g id="node7" class="node">
<title>parameters.delta</title>
<polygon fill="#ffe0b2" stroke="black" points="270,-252 216,-252 216,-216 270,-216 270,-252"/>
<text xml:space="preserve" text-anchor="middle" x="243" y="-230.12" font-family="Helvetica,sans-Serif" font-size="10.00">delta</text>
</g>
<!-- parameters.delta&#45;&gt;process_1 -->
<g id="edge7" class="edge">
<title>parameters.delta&#45;&gt;process_1</title>
<path fill="none" stroke="black" d="M233.85,-215.7C229.78,-207.98 224.88,-198.71 220.33,-190.11"/>
<polygon fill="black" stroke="black" points="223.52,-188.65 215.75,-181.44 217.33,-191.92 223.52,-188.65"/>
</g>
<!-- parameters.gamma -->
<g id="node8" class="node">
<title>parameters.gamma</title>
<polygon fill="#ffe0b2" stroke="black" points="414,-252 360,-252 360,-216 414,-216 414,-252"/>
<text xml:space="preserve" text-anchor="middle" x="387" y="-230.12" font-family="Helvetica,sans-Serif" font-size="10.00">gamma</text>
</g>
<!-- process_2 -->
<g id="node13" class="node">
<title>process_2</title>
<path fill="#f8bbd0" stroke="black" d="M379.25,-180C379.25,-180 322.75,-180 322.75,-180 316.75,-180 310.75,-174 310.75,-168 310.75,-168 310.75,-156 310.75,-156 310.75,-150 316.75,-144 322.75,-144 322.75,-144 379.25,-144 379.25,-144 385.25,-144 391.25,-150 391.25,-156 391.25,-156 391.25,-168 391.25,-168 391.25,-174 385.25,-180 379.25,-180"/>
<text xml:space="preserve" text-anchor="middle" x="351" y="-158.12" font-family="Helvetica,sans-Serif" font-size="10.00">predator_death</text>
</g>
<!-- parameters.gamma&#45;&gt;process_2 -->
<g id="edge11" class="edge">
<title>parameters.gamma&#45;&gt;process_2</title>
<path fill="none" stroke="black" d="M378.1,-215.7C374.13,-207.98 369.37,-198.71 364.94,-190.11"/>
<polygon fill="black" stroke="black" points="368.17,-188.74 360.49,-181.45 361.95,-191.94 368.17,-188.74"/>
</g>
<!-- state.predator -->
<g id="node9" class="node">
<title>state.predator</title>
<polygon fill="#c8e6c9" stroke="black" stroke-width="2" points="342,-252 288,-252 288,-216 342,-216 342,-252"/>
<text xml:space="preserve" text-anchor="middle" x="315" y="-230.12" font-family="Helvetica,sans-Serif" font-size="10.00">predator</text>
</g>
<!-- state.predator&#45;&gt;process_1 -->
<g id="edge5" class="edge">
<title>state.predator&#45;&gt;process_1</title>
<path fill="none" stroke="black" d="M287.78,-215.52C274.02,-206.68 257.13,-195.84 242.29,-186.3"/>
<polygon fill="black" stroke="black" points="244.46,-183.54 234.15,-181.08 240.67,-189.43 244.46,-183.54"/>
</g>
<!-- state.predator&#45;&gt;process_2 -->
<g id="edge10" class="edge">
<title>state.predator&#45;&gt;process_2</title>
<path fill="none" stroke="black" d="M323.9,-215.7C327.87,-207.98 332.63,-198.71 337.06,-190.11"/>
<polygon fill="black" stroke="black" points="340.05,-191.94 341.51,-181.45 333.83,-188.74 340.05,-191.94"/>
</g>
<!-- state.prey -->
<g id="node10" class="node">
<title>state.prey</title>
<polygon fill="#c8e6c9" stroke="black" stroke-width="2" points="126,-252 72,-252 72,-216 126,-216 126,-252"/>
<text xml:space="preserve" text-anchor="middle" x="99" y="-230.12" font-family="Helvetica,sans-Serif" font-size="10.00">prey</text>
</g>
<!-- state.prey&#45;&gt;process_0 -->
<g id="edge1" class="edge">
<title>state.prey&#45;&gt;process_0</title>
<path fill="none" stroke="black" d="M87.38,-215.7C82.09,-207.81 75.7,-198.3 69.82,-189.55"/>
<polygon fill="black" stroke="black" points="72.81,-187.71 64.33,-181.36 67,-191.61 72.81,-187.71"/>
</g>
<!-- state.prey&#45;&gt;process_1 -->
<g id="edge4" class="edge">
<title>state.prey&#45;&gt;process_1</title>
<path fill="none" stroke="black" d="M125.72,-215.52C139.23,-206.68 155.81,-195.84 170.38,-186.3"/>
<polygon fill="black" stroke="black" points="171.9,-189.49 178.35,-181.09 168.06,-183.63 171.9,-189.49"/>
</g>
<!-- process_0&#45;&gt;derived.prey_growth -->
<g id="edge3" class="edge">
<title>process_0&#45;&gt;derived.prey_growth</title>
<path fill="none" stroke="black" d="M52,-143.7C52,-136.41 52,-127.73 52,-119.54"/>
<polygon fill="black" stroke="black" points="55.5,-119.62 52,-109.62 48.5,-119.62 55.5,-119.62"/>
</g>
<!-- process_1&#45;&gt;derived.predator_gain -->
<g id="edge9" class="edge">
<title>process_1&#45;&gt;derived.predator_gain</title>
<path fill="none" stroke="black" d="M214.65,-143.7C218.47,-136.07 223.04,-126.92 227.3,-118.4"/>
<polygon fill="black" stroke="black" points="230.43,-119.97 231.77,-109.46 224.17,-116.84 230.43,-119.97"/>
</g>
<!-- process_1&#45;&gt;derived.prey_loss -->
<g id="edge8" class="edge">
<title>process_1&#45;&gt;derived.prey_loss</title>
<path fill="none" stroke="black" d="M190.92,-143.7C183.44,-135.11 174.27,-124.58 166.1,-115.21"/>
<polygon fill="black" stroke="black" points="168.86,-113.05 159.65,-107.81 163.58,-117.65 168.86,-113.05"/>
</g>
<!-- process_2&#45;&gt;derived.predator_death -->
<g id="edge12" class="edge">
<title>process_2&#45;&gt;derived.predator_death</title>
<path fill="none" stroke="black" d="M351,-143.7C351,-136.41 351,-127.73 351,-119.54"/>
<polygon fill="black" stroke="black" points="354.5,-119.62 351,-109.62 347.5,-119.62 354.5,-119.62"/>
</g>
</g>
</svg>
