<?xml version="1.0" encoding="UTF-8" standalone="no"?>
<!DOCTYPE svg PUBLIC "-//W3C//DTD SVG 1.1//EN"
 "http://www.w3.org/Graphics/SVG/1.1/DTD/svg11.dtd">
<!-- Generated by graphviz version 14.1.3 (20260303.0454)
 -->
<!-- Title: growth&#45;mortality Pages: 1 -->
<svg width="349pt" height="260pt"
 viewBox="0.00 0.00 349.00 260.00" xmlns="http://www.w3.org/2000/svg" xmlns:xlink="http://www.w3.org/1999/xlink">
<g id="graph0" class="graph" transform="scale(1 1) rotate(0) translate(4 256)">
<title>growth&#45;mortality</title>
<!-- derived.growth_flux -->
<g id="node1" class="node">
<title>derived.growth_flux</title>
<ellipse fill="#62b6cb" stroke="black" cx="241.88" cy="-90" rx="39.2" ry="18"/>
<text xml:space="preserve" text-anchor="middle" x="241.88" y="-86.12" font-family="Helvetica,sans-Serif" font-size="10.00" fill="white">growth_flux</text>
</g>
<!-- tendency_biomass -->
<g id="node9" class="node">
<title>tendency_biomass</title>
<polygon fill="#f0f0f0" stroke="black" points="188.88,-36 123.4,-18 188.87,0 254.35,-18 188.88,-36"/>
<text xml:space="preserve" text-anchor="middle" x="188.88" y="-14.12" font-family="Helvetica,sans-Serif" font-size="10.00" fill="#2d3748">d biomass / dt</text>
</g>
<!-- derived.growth_flux&#45;&gt;tendency_biomass -->
<g id="edge8" class="edge">
<title>derived.growth_flux&#45;&gt;tendency_biomass</title>
<path fill="none" stroke="black" d="M229.58,-72.76C222.72,-63.71 214.06,-52.26 206.49,-42.27"/>
<polygon fill="black" stroke="black" points="209.4,-40.32 200.58,-34.46 203.82,-44.54 209.4,-40.32"/>
</g>
<!-- derived.mortality_flux -->
<g id="node2" class="node">
<title>derived.mortality_flux</title>
<ellipse fill="#62b6cb" stroke="black" cx="138.88" cy="-90" rx="44.08" ry="18"/>
<text xml:space="preserve" text-anchor="middle" x="138.88" y="-86.12" font-family="Helvetica,sans-Serif" font-size="10.00" fill="white">mortality_flux</text>
</g>
<!-- derived.mortality_flux&#45;&gt;tendency_biomass -->
<g id="edge9" class="edge">
<title>derived.mortality_flux&#45;&gt;tendency_biomass</title>
<path fill="none" stroke="black" d="M150.72,-72.41C157.05,-63.56 164.94,-52.51 171.91,-42.76"/>
<polygon fill="black" stroke="black" points="174.62,-44.97 177.59,-34.8 168.93,-40.91 174.62,-44.97"/>
</g>
<!-- forcings.temperature -->
<g id="node3" class="node">
<title>forcings.temperature</title>
<polygon fill="#62b6cb" stroke="black" points="67.75,-252 0,-252 0,-216 67.75,-216 67.75,-252"/>
<text xml:space="preserve" text-anchor="middle" x="33.88" y="-230.12" font-family="Helvetica,sans-Serif" font-size="10.00" fill="white">temperature</text>
</g>
<!-- process_1 -->
<g id="node8" class="node">
<title>process_1</title>
<path fill="#e8833a" stroke="black" d="M171,-180C171,-180 98.75,-180 98.75,-180 92.75,-180 86.75,-174 86.75,-168 86.75,-168 86.75,-156 86.75,-156 86.75,-150 92.75,-144 98.75,-144 98.75,-144 171,-144 171,-144 177,-144 183,-150 183,-156 183,-156 183,-168 183,-168 183,-174 177,-180 171,-180"/>
<text xml:space="preserve" text-anchor="middle" x="134.88" y="-158.12" font-family="Helvetica,sans-Serif" font-size="10.00" fill="white">compute_mortality</text>
</g>
<!-- forcings.temperature&#45;&gt;process_1 -->
<g id="edge5" class="edge">
<title>forcings.temperature&#45;&gt;process_1</title>
<path fill="none" stroke="black" d="M59.1,-215.52C71.73,-206.76 87.2,-196.04 100.86,-186.58"/>
<polygon fill="black" stroke="black" points="102.5,-189.7 108.73,-181.12 98.51,-183.94 102.5,-189.7"/>
</g>
<!-- parameters.growth_rate -->
<g id="node4" class="node">
<title>parameters.growth_rate</title>
<polygon fill="#5fa8d3" stroke="black" points="341.38,-252 274.38,-252 274.38,-216 341.38,-216 341.38,-252"/>
<text xml:space="preserve" text-anchor="middle" x="307.88" y="-230.12" font-family="Helvetica,sans-Serif" font-size="10.00" fill="white">growth_rate</text>
</g>
<!-- process_0 -->
<g id="node7" class="node">
<title>process_0</title>
<path fill="#e8833a" stroke="black" d="M276.88,-180C276.88,-180 212.88,-180 212.88,-180 206.88,-180 200.88,-174 200.88,-168 200.88,-168 200.88,-156 200.88,-156 200.88,-150 206.88,-144 212.88,-144 212.88,-144 276.88,-144 276.88,-144 282.88,-144 288.88,-150 288.88,-156 288.88,-156 288.88,-168 288.88,-168 288.88,-174 282.88,-180 276.88,-180"/>
<text xml:space="preserve" text-anchor="middle" x="244.88" y="-158.12" font-family="Helvetica,sans-Serif" font-size="10.00" fill="white">compute_growth</text>
</g>
<!-- parameters.growth_rate&#45;&gt;process_0 -->
<g id="edge2" class="edge">
<title>parameters.growth_rate&#45;&gt;process_0</title>
<path fill="none" stroke="black" d="M292.3,-215.7C284.9,-207.47 275.91,-197.48 267.75,-188.42"/>
<polygon fill="black" stroke="black" points="270.57,-186.32 261.28,-181.23 265.37,-191 270.57,-186.32"/>
</g>
<!-- parameters.thermal_sensitivity -->
<g id="node5" class="node">
<title>parameters.thermal_sensitivity</title>
<polygon fill="#5fa8d3" stroke="black" points="183.75,-252 86,-252 86,-216 183.75,-216 183.75,-252"/>
<text xml:space="preserve" text-anchor="middle" x="134.88" y="-230.12" font-family="Helvetica,sans-Serif" font-size="10.00" fill="white">thermal_sensitivity</text>
</g>
<!-- parameters.thermal_sensitivity&#45;&gt;process_1 -->
<g id="edge6" class="edge">
<title>parameters.thermal_sensitivity&#45;&gt;process_1</title>
<path fill="none" stroke="black" d="M134.88,-215.7C134.88,-208.41 134.88,-199.73 134.88,-191.54"/>
<polygon fill="black" stroke="black" points="138.38,-191.62 134.88,-181.62 131.38,-191.62 138.38,-191.62"/>
</g>
<!-- state.biomass -->
<g id="node6" class="node">
<title>state.biomass</title>
<polygon fill="#1b4965" stroke="black" stroke-width="2" points="255.88,-252 201.88,-252 201.88,-216 255.88,-216 255.88,-252"/>
<text xml:space="preserve" text-anchor="middle" x="228.88" y="-230.12" font-family="Helvetica,sans-Serif" font-size="10.00" fill="white">biomass</text>
</g>
<!-- state.biomass&#45;&gt;process_0 -->
<g id="edge1" class="edge">
<title>state.biomass&#45;&gt;process_0</title>
<path fill="none" stroke="black" d="M232.83,-215.7C234.52,-208.32 236.53,-199.52 238.42,-191.25"/>
<polygon fill="black" stroke="black" points="241.81,-192.11 240.63,-181.58 234.99,-190.55 241.81,-192.11"/>
</g>
<!-- state.biomass&#45;&gt;process_1 -->
<g id="edge4" class="edge">
<title>state.biomass&#45;&gt;process_1</title>
<path fill="none" stroke="black" d="M205.64,-215.7C194,-207.03 179.73,-196.4 167.05,-186.96"/>
<polygon fill="black" stroke="black" points="169.49,-184.42 159.38,-181.25 165.31,-190.03 169.49,-184.42"/>
</g>
<!-- process_0&#45;&gt;derived.growth_flux -->
<g id="edge3" class="edge">
<title>process_0&#45;&gt;derived.growth_flux</title>
<path fill="none" stroke="black" d="M244.13,-143.7C243.82,-136.41 243.45,-127.73 243.1,-119.54"/>
<polygon fill="black" stroke="black" points="246.6,-119.46 242.67,-109.62 239.6,-119.76 246.6,-119.46"/>
</g>
<!-- process_1&#45;&gt;derived.mortality_flux -->
<g id="edge7" class="edge">
<title>process_1&#45;&gt;derived.mortality_flux</title>
<path fill="none" stroke="black" d="M135.86,-143.7C136.28,-136.41 136.78,-127.73 137.24,-119.54"/>
<polygon fill="black" stroke="black" points="140.73,-119.8 137.81,-109.62 133.75,-119.4 140.73,-119.8"/>
</g>
</g>
</svg>
