<?xml version="1.0" encoding="UTF-8" standalone="no"?>
<!DOCTYPE svg PUBLIC "-//W3C//DTD SVG 1.1//EN"
 "http://www.w3.org/Graphics/SVG/1.1/DTD/svg11.dtd">
<!-- Generated by graphviz version 14.1.3 (20260303.0454)
 -->
<!-- Title: seapodym&#45;lmtl&#45;no&#45;transport Pages: 1 -->
<svg width="779pt" height="980pt"
 viewBox="0.00 0.00 779.00 980.00" xmlns="http://www.w3.org/2000/svg" xmlns:xlink="http://www.w3.org/1999/xlink">
<g id="graph0" class="graph" transform="scale(1 1) rotate(0) translate(4 976)">
<title>seapodym&#45;lmtl&#45;no&#45;transport</title>
<!-- derived.aging_flow -->
<g id="node1" class="node">
<title>derived.aging_flow</title>
<ellipse fill="#e1bee7" stroke="black" cx="243.25" cy="-90" rx="36.98" ry="18"/>
<text xml:space="preserve" text-anchor="middle" x="243.25" y="-86.12" font-family="Helvetica,sans-Serif" font-size="10.00">aging_flow</text>
</g>
<!-- tendency_production -->
<g id="node38" class="node">
<title>tendency_production</title>
<polygon fill="#ffcdd2" stroke="black" points="243.25,-36 170.87,-18 243.25,0 315.63,-18 243.25,-36"/>
<text xml:space="preserve" text-anchor="middle" x="243.25" y="-14.12" font-family="Helvetica,sans-Serif" font-size="10.00">d production / dt</text>
</g>
<!-- derived.aging_flow&#45;&gt;tendency_production -->
<g id="edge43" class="edge">
<title>derived.aging_flow&#45;&gt;tendency_production</title>
<path fill="none" stroke="black" d="M243.25,-71.7C243.25,-64.41 243.25,-55.73 243.25,-47.54"/>
<polygon fill="black" stroke="black" points="246.75,-47.62 243.25,-37.62 239.75,-47.62 246.75,-47.62"/>
</g>
<!-- derived.day_length -->
<g id="node2" class="node">
<title>derived.day_length</title>
<ellipse fill="#e1bee7" stroke="black" cx="366.25" cy="-810" rx="37.42" ry="18"/>
<text xml:space="preserve" text-anchor="middle" x="366.25" y="-806.12" font-family="Helvetica,sans-Serif" font-size="10.00">day_length</text>
</g>
<!-- process_1 -->
<g id="node28" class="node">
<title>process_1</title>
<path fill="#f8bbd0" stroke="black" d="M538.5,-756C538.5,-756 452,-756 452,-756 446,-756 440,-750 440,-744 440,-744 440,-732 440,-732 440,-726 446,-720 452,-720 452,-720 538.5,-720 538.5,-720 544.5,-720 550.5,-726 550.5,-732 550.5,-732 550.5,-744 550.5,-744 550.5,-750 544.5,-756 538.5,-756"/>
<text xml:space="preserve" text-anchor="middle" x="495.25" y="-734.12" font-family="Helvetica,sans-Serif" font-size="10.00">layer_weighted_mean</text>
</g>
<!-- derived.day_length&#45;&gt;process_1 -->
<g id="edge5" class="edge">
<title>derived.day_length&#45;&gt;process_1</title>
<path fill="none" stroke="black" d="M390.51,-795.83C408.2,-786.24 432.61,-772.99 453.41,-761.7"/>
<polygon fill="black" stroke="black" points="454.84,-764.91 461.96,-757.06 451.5,-758.76 454.84,-764.91"/>
</g>
<!-- derived.mean_temperature -->
<g id="node3" class="node">
<title>derived.mean_temperature</title>
<ellipse fill="#e1bee7" stroke="black" cx="495.25" cy="-666" rx="57.39" ry="18"/>
<text xml:space="preserve" text-anchor="middle" x="495.25" y="-662.12" font-family="Helvetica,sans-Serif" font-size="10.00">mean_temperature</text>
</g>
<!-- process_2 -->
<g id="node29" class="node">
<title>process_2</title>
<path fill="#f8bbd0" stroke="black" d="M539.62,-612C539.62,-612 450.88,-612 450.88,-612 444.88,-612 438.88,-606 438.88,-600 438.88,-600 438.88,-588 438.88,-588 438.88,-582 444.88,-576 450.88,-576 450.88,-576 539.62,-576 539.62,-576 545.62,-576 551.62,-582 551.62,-588 551.62,-588 551.62,-600 551.62,-600 551.62,-606 545.62,-612 539.62,-612"/>
<text xml:space="preserve" text-anchor="middle" x="495.25" y="-590.12" font-family="Helvetica,sans-Serif" font-size="10.00">threshold_temperature</text>
</g>
<!-- derived.mean_temperature&#45;&gt;process_2 -->
<g id="edge9" class="edge">
<title>derived.mean_temperature&#45;&gt;process_2</title>
<path fill="none" stroke="black" d="M495.25,-647.7C495.25,-640.41 495.25,-631.73 495.25,-623.54"/>
<polygon fill="black" stroke="black" points="498.75,-623.62 495.25,-613.62 491.75,-623.62 498.75,-623.62"/>
</g>
<!-- derived.mortality_flux -->
<g id="node4" class="node">
<title>derived.mortality_flux</title>
<ellipse fill="#e1bee7" stroke="black" cx="580.25" cy="-162" rx="44.08" ry="18"/>
<text xml:space="preserve" text-anchor="middle" x="580.25" y="-158.12" font-family="Helvetica,sans-Serif" font-size="10.00">mortality_flux</text>
</g>
<!-- tendency_biomass -->
<g id="node37" class="node">
<title>tendency_biomass</title>
<polygon fill="#ffcdd2" stroke="black" points="540.25,-36 474.77,-18 540.25,0 605.73,-18 540.25,-36"/>
<text xml:space="preserve" text-anchor="middle" x="540.25" y="-14.12" font-family="Helvetica,sans-Serif" font-size="10.00">d biomass / dt</text>
</g>
<!-- derived.mortality_flux&#45;&gt;tendency_biomass -->
<g id="edge40" class="edge">
<title>derived.mortality_flux&#45;&gt;tendency_biomass</title>
<path fill="none" stroke="black" d="M577.44,-143.72C574.3,-125.63 568.66,-96.5 561.25,-72 558.54,-63.04 554.97,-53.47 551.54,-44.96"/>
<polygon fill="black" stroke="black" points="554.85,-43.81 547.78,-35.92 548.39,-46.5 554.85,-43.81"/>
</g>
<!-- derived.npp_injection -->
<g id="node5" class="node">
<title>derived.npp_injection</title>
<ellipse fill="#e1bee7" stroke="black" cx="145.25" cy="-90" rx="43.19" ry="18"/>
<text xml:space="preserve" text-anchor="middle" x="145.25" y="-86.12" font-family="Helvetica,sans-Serif" font-size="10.00">npp_injection</text>
</g>
<!-- derived.npp_injection&#45;&gt;tendency_production -->
<g id="edge42" class="edge">
<title>derived.npp_injection&#45;&gt;tendency_production</title>
<path fill="none" stroke="black" d="M166.03,-74.15C180.55,-63.79 200.08,-49.84 215.87,-38.56"/>
<polygon fill="black" stroke="black" points="217.8,-41.48 223.9,-32.82 213.73,-35.79 217.8,-41.48"/>
</g>
<!-- derived.rec_age -->
<g id="node6" class="node">
<title>derived.rec_age</title>
<ellipse fill="#e1bee7" stroke="black" cx="301.25" cy="-234" rx="29.88" ry="18"/>
<text xml:space="preserve" text-anchor="middle" x="301.25" y="-230.12" font-family="Helvetica,sans-Serif" font-size="10.00">rec_age</text>
</g>
<!-- process_7 -->
<g id="node34" class="node">
<title>process_7</title>
<path fill="#f8bbd0" stroke="black" d="M276.5,-180C276.5,-180 238,-180 238,-180 232,-180 226,-174 226,-168 226,-168 226,-156 226,-156 226,-150 232,-144 238,-144 238,-144 276.5,-144 276.5,-144 282.5,-144 288.5,-150 288.5,-156 288.5,-156 288.5,-168 288.5,-168 288.5,-174 282.5,-180 276.5,-180"/>
<text xml:space="preserve" text-anchor="middle" x="257.25" y="-158.12" font-family="Helvetica,sans-Serif" font-size="10.00">aging_flow</text>
</g>
<!-- derived.rec_age&#45;&gt;process_7 -->
<g id="edge27" class="edge">
<title>derived.rec_age&#45;&gt;process_7</title>
<path fill="none" stroke="black" d="M291.04,-216.76C285.97,-208.7 279.72,-198.74 273.97,-189.6"/>
<polygon fill="black" stroke="black" points="277.1,-188.01 268.82,-181.41 271.18,-191.73 277.1,-188.01"/>
</g>
<!-- process_8 -->
<g id="node35" class="node">
<title>process_8</title>
<path fill="#f8bbd0" stroke="black" d="M396.25,-180C396.25,-180 332.25,-180 332.25,-180 326.25,-180 320.25,-174 320.25,-168 320.25,-168 320.25,-156 320.25,-156 320.25,-150 326.25,-144 332.25,-144 332.25,-144 396.25,-144 396.25,-144 402.25,-144 408.25,-150 408.25,-156 408.25,-156 408.25,-168 408.25,-168 408.25,-174 402.25,-180 396.25,-180"/>
<text xml:space="preserve" text-anchor="middle" x="364.25" y="-158.12" font-family="Helvetica,sans-Serif" font-size="10.00">recruitment_flow</text>
</g>
<!-- derived.rec_age&#45;&gt;process_8 -->
<g id="edge31" class="edge">
<title>derived.rec_age&#45;&gt;process_8</title>
<path fill="none" stroke="black" d="M314.92,-217.81C322.65,-209.23 332.5,-198.27 341.37,-188.42"/>
<polygon fill="black" stroke="black" points="343.74,-191.03 347.82,-181.25 338.53,-186.34 343.74,-191.03"/>
</g>
<!-- derived.recruitment_gain -->
<g id="node7" class="node">
<title>derived.recruitment_gain</title>
<ellipse fill="#e1bee7" stroke="black" cx="500.25" cy="-90" rx="52.07" ry="18"/>
<text xml:space="preserve" text-anchor="middle" x="500.25" y="-86.12" font-family="Helvetica,sans-Serif" font-size="10.00">recruitment_gain</text>
</g>
<!-- derived.recruitment_gain&#45;&gt;tendency_biomass -->
<g id="edge41" class="edge">
<title>derived.recruitment_gain&#45;&gt;tendency_biomass</title>
<path fill="none" stroke="black" d="M509.93,-72.05C514.77,-63.59 520.72,-53.18 526.06,-43.83"/>
<polygon fill="black" stroke="black" points="529.07,-45.62 530.99,-35.2 522.99,-42.15 529.07,-45.62"/>
</g>
<!-- derived.recruitment_prod_loss -->
<g id="node8" class="node">
<title>derived.recruitment_prod_loss</title>
<ellipse fill="#e1bee7" stroke="black" cx="364.25" cy="-90" rx="66.27" ry="18"/>
<text xml:space="preserve" text-anchor="middle" x="364.25" y="-86.12" font-family="Helvetica,sans-Serif" font-size="10.00">recruitment_prod_loss</text>
</g>
<!-- derived.recruitment_prod_loss&#45;&gt;tendency_production -->
<g id="edge44" class="edge">
<title>derived.recruitment_prod_loss&#45;&gt;tendency_production</title>
<path fill="none" stroke="black" d="M337.1,-73.29C318.43,-62.49 293.61,-48.13 274.18,-36.9"/>
<polygon fill="black" stroke="black" points="276.02,-33.91 265.61,-31.93 272.51,-39.97 276.02,-33.91"/>
</g>
<!-- derived.t_ref_norm -->
<g id="node9" class="node">
<title>derived.t_ref_norm</title>
<ellipse fill="#e1bee7" stroke="black" cx="388.25" cy="-378" rx="36.98" ry="18"/>
<text xml:space="preserve" text-anchor="middle" x="388.25" y="-374.12" font-family="Helvetica,sans-Serif" font-size="10.00">t_ref_norm</text>
</g>
<!-- process_5 -->
<g id="node32" class="node">
<title>process_5</title>
<path fill="#f8bbd0" stroke="black" d="M332.12,-324C332.12,-324 270.38,-324 270.38,-324 264.38,-324 258.38,-318 258.38,-312 258.38,-312 258.38,-300 258.38,-300 258.38,-294 264.38,-288 270.38,-288 270.38,-288 332.12,-288 332.12,-288 338.12,-288 344.12,-294 344.12,-300 344.12,-300 344.12,-312 344.12,-312 344.12,-318 338.12,-324 332.12,-324"/>
<text xml:space="preserve" text-anchor="middle" x="301.25" y="-302.12" font-family="Helvetica,sans-Serif" font-size="10.00">recruitment_age</text>
</g>
<!-- derived.t_ref_norm&#45;&gt;process_5 -->
<g id="edge19" class="edge">
<title>derived.t_ref_norm&#45;&gt;process_5</title>
<path fill="none" stroke="black" d="M369.8,-362.15C358.72,-353.24 344.36,-341.68 331.64,-331.45"/>
<polygon fill="black" stroke="black" points="333.91,-328.78 323.92,-325.24 329.52,-334.24 333.91,-328.78"/>
</g>
<!-- process_9 -->
<g id="node36" class="node">
<title>process_9</title>
<path fill="#f8bbd0" stroke="black" d="M595.25,-324C595.25,-324 565.25,-324 565.25,-324 559.25,-324 553.25,-318 553.25,-312 553.25,-312 553.25,-300 553.25,-300 553.25,-294 559.25,-288 565.25,-288 565.25,-288 595.25,-288 595.25,-288 601.25,-288 607.25,-294 607.25,-300 607.25,-300 607.25,-312 607.25,-312 607.25,-318 601.25,-324 595.25,-324"/>
<text xml:space="preserve" text-anchor="middle" x="580.25" y="-302.12" font-family="Helvetica,sans-Serif" font-size="10.00">mortality</text>
</g>
<!-- derived.t_ref_norm&#45;&gt;process_9 -->
<g id="edge38" class="edge">
<title>derived.t_ref_norm&#45;&gt;process_9</title>
<path fill="none" stroke="black" d="M416.95,-366.36C422.68,-364.25 428.65,-362.05 434.25,-360 470.85,-346.6 512.66,-331.43 542.13,-320.77"/>
<polygon fill="black" stroke="black" points="543.15,-324.12 551.36,-317.43 540.77,-317.54 543.15,-324.12"/>
</g>
<!-- derived.temp_norm -->
<g id="node10" class="node">
<title>derived.temp_norm</title>
<ellipse fill="#e1bee7" stroke="black" cx="481.25" cy="-378" rx="38.31" ry="18"/>
<text xml:space="preserve" text-anchor="middle" x="481.25" y="-374.12" font-family="Helvetica,sans-Serif" font-size="10.00">temp_norm</text>
</g>
<!-- derived.temp_norm&#45;&gt;process_5 -->
<g id="edge16" class="edge">
<title>derived.temp_norm&#45;&gt;process_5</title>
<path fill="none" stroke="black" d="M452.33,-365.75C426.17,-355.58 386.97,-340.34 355.06,-327.93"/>
<polygon fill="black" stroke="black" points="356.54,-324.75 345.96,-324.39 354.01,-331.27 356.54,-324.75"/>
</g>
<!-- derived.temp_norm&#45;&gt;process_9 -->
<g id="edge35" class="edge">
<title>derived.temp_norm&#45;&gt;process_9</title>
<path fill="none" stroke="black" d="M501.76,-362.5C514.59,-353.43 531.42,-341.53 546.2,-331.08"/>
<polygon fill="black" stroke="black" points="548.18,-333.96 554.32,-325.33 544.14,-328.25 548.18,-333.96"/>
</g>
<!-- derived.thresholded_temperature -->
<g id="node11" class="node">
<title>derived.thresholded_temperature</title>
<ellipse fill="#e1bee7" stroke="black" cx="500.25" cy="-522" rx="72.93" ry="18"/>
<text xml:space="preserve" text-anchor="middle" x="500.25" y="-518.12" font-family="Helvetica,sans-Serif" font-size="10.00">thresholded_temperature</text>
</g>
<!-- process_3 -->
<g id="node30" class="node">
<title>process_3</title>
<path fill="#f8bbd0" stroke="black" d="M532.75,-468C532.75,-468 453.75,-468 453.75,-468 447.75,-468 441.75,-462 441.75,-456 441.75,-456 441.75,-444 441.75,-444 441.75,-438 447.75,-432 453.75,-432 453.75,-432 532.75,-432 532.75,-432 538.75,-432 544.75,-438 544.75,-444 544.75,-444 544.75,-456 544.75,-456 544.75,-462 538.75,-468 532.75,-468"/>
<text xml:space="preserve" text-anchor="middle" x="493.25" y="-446.12" font-family="Helvetica,sans-Serif" font-size="10.00">gillooly_temperature</text>
</g>
<!-- derived.thresholded_temperature&#45;&gt;process_3 -->
<g id="edge12" class="edge">
<title>derived.thresholded_temperature&#45;&gt;process_3</title>
<path fill="none" stroke="black" d="M498.52,-503.7C497.79,-496.41 496.92,-487.73 496.1,-479.54"/>
<polygon fill="black" stroke="black" points="499.59,-479.21 495.11,-469.61 492.62,-479.91 499.59,-479.21"/>
</g>
<!-- forcings.day_of_year -->
<g id="node12" class="node">
<title>forcings.day_of_year</title>
<polygon fill="#bbdefb" stroke="black" points="360.88,-972 291.62,-972 291.62,-936 360.88,-936 360.88,-972"/>
<text xml:space="preserve" text-anchor="middle" x="326.25" y="-950.12" font-family="Helvetica,sans-Serif" font-size="10.00">day_of_year</text>
</g>
<!-- process_0 -->
<g id="node27" class="node">
<title>process_0</title>
<path fill="#f8bbd0" stroke="black" d="M385.88,-900C385.88,-900 346.62,-900 346.62,-900 340.62,-900 334.62,-894 334.62,-888 334.62,-888 334.62,-876 334.62,-876 334.62,-870 340.62,-864 346.62,-864 346.62,-864 385.88,-864 385.88,-864 391.88,-864 397.88,-870 397.88,-876 397.88,-876 397.88,-888 397.88,-888 397.88,-894 391.88,-900 385.88,-900"/>
<text xml:space="preserve" text-anchor="middle" x="366.25" y="-878.12" font-family="Helvetica,sans-Serif" font-size="10.00">day_length</text>
</g>
<!-- forcings.day_of_year&#45;&gt;process_0 -->
<g id="edge2" class="edge">
<title>forcings.day_of_year&#45;&gt;process_0</title>
<path fill="none" stroke="black" d="M336.14,-935.7C340.59,-927.9 345.96,-918.51 350.92,-909.83"/>
<polygon fill="black" stroke="black" points="353.8,-911.84 355.73,-901.42 347.72,-908.36 353.8,-911.84"/>
</g>
<!-- forcings.latitude -->
<g id="node13" class="node">
<title>forcings.latitude</title>
<polygon fill="#bbdefb" stroke="black" points="433.25,-972 379.25,-972 379.25,-936 433.25,-936 433.25,-972"/>
<text xml:space="preserve" text-anchor="middle" x="406.25" y="-950.12" font-family="Helvetica,sans-Serif" font-size="10.00">latitude</text>
</g>
<!-- forcings.latitude&#45;&gt;process_0 -->
<g id="edge1" class="edge">
<title>forcings.latitude&#45;&gt;process_0</title>
<path fill="none" stroke="black" d="M396.36,-935.7C391.91,-927.9 386.54,-918.51 381.58,-909.83"/>
<polygon fill="black" stroke="black" points="384.78,-908.36 376.77,-901.42 378.7,-911.84 384.78,-908.36"/>
</g>
<!-- forcings.primary_production -->
<g id="node14" class="node">
<title>forcings.primary_production</title>
<polygon fill="#bbdefb" stroke="black" points="98.5,-252 0,-252 0,-216 98.5,-216 98.5,-252"/>
<text xml:space="preserve" text-anchor="middle" x="49.25" y="-230.12" font-family="Helvetica,sans-Serif" font-size="10.00">primary_production</text>
</g>
<!-- process_6 -->
<g id="node33" class="node">
<title>process_6</title>
<path fill="#f8bbd0" stroke="black" d="M169.75,-180C169.75,-180 120.75,-180 120.75,-180 114.75,-180 108.75,-174 108.75,-168 108.75,-168 108.75,-156 108.75,-156 108.75,-150 114.75,-144 120.75,-144 120.75,-144 169.75,-144 169.75,-144 175.75,-144 181.75,-150 181.75,-156 181.75,-156 181.75,-168 181.75,-168 181.75,-174 175.75,-180 169.75,-180"/>
<text xml:space="preserve" text-anchor="middle" x="145.25" y="-158.12" font-family="Helvetica,sans-Serif" font-size="10.00">npp_injection</text>
</g>
<!-- forcings.primary_production&#45;&gt;process_6 -->
<g id="edge21" class="edge">
<title>forcings.primary_production&#45;&gt;process_6</title>
<path fill="none" stroke="black" d="M72.98,-215.7C84.87,-207.03 99.44,-196.4 112.39,-186.96"/>
<polygon fill="black" stroke="black" points="114.22,-189.96 120.24,-181.24 110.09,-184.3 114.22,-189.96"/>
</g>
<!-- forcings.temperature -->
<g id="node15" class="node">
<title>forcings.temperature</title>
<polygon fill="#bbdefb" stroke="black" points="489.12,-828 421.38,-828 421.38,-792 489.12,-792 489.12,-828"/>
<text xml:space="preserve" text-anchor="middle" x="455.25" y="-806.12" font-family="Helvetica,sans-Serif" font-size="10.00">temperature</text>
</g>
<!-- forcings.temperature&#45;&gt;process_1 -->
<g id="edge4" class="edge">
<title>forcings.temperature&#45;&gt;process_1</title>
<path fill="none" stroke="black" d="M465.14,-791.7C469.59,-783.9 474.96,-774.51 479.92,-765.83"/>
<polygon fill="black" stroke="black" points="482.8,-767.84 484.73,-757.42 476.72,-764.36 482.8,-767.84"/>
</g>
<!-- parameters.cohort_ages -->
<g id="node16" class="node">
<title>parameters.cohort_ages</title>
<polygon fill="#ffe0b2" stroke="black" points="418.88,-252 349.62,-252 349.62,-216 418.88,-216 418.88,-252"/>
<text xml:space="preserve" text-anchor="middle" x="384.25" y="-230.12" font-family="Helvetica,sans-Serif" font-size="10.00">cohort_ages</text>
</g>
<!-- parameters.cohort_ages&#45;&gt;process_7 -->
<g id="edge26" class="edge">
<title>parameters.cohort_ages&#45;&gt;process_7</title>
<path fill="none" stroke="black" d="M352.53,-215.52C336.19,-206.51 316.08,-195.42 298.54,-185.76"/>
<polygon fill="black" stroke="black" points="300.34,-182.75 289.89,-180.99 296.96,-188.88 300.34,-182.75"/>
</g>
<!-- parameters.cohort_ages&#45;&gt;process_8 -->
<g id="edge30" class="edge">
<title>parameters.cohort_ages&#45;&gt;process_8</title>
<path fill="none" stroke="black" d="M379.31,-215.7C377.17,-208.24 374.63,-199.32 372.24,-190.97"/>
<polygon fill="black" stroke="black" points="375.67,-190.21 369.55,-181.56 368.93,-192.14 375.67,-190.21"/>
</g>
<!-- parameters.day_layer -->
<g id="node17" class="node">
<title>parameters.day_layer</title>
<polygon fill="#ffe0b2" stroke="black" points="565.25,-828 507.25,-828 507.25,-792 565.25,-792 565.25,-828"/>
<text xml:space="preserve" text-anchor="middle" x="536.25" y="-806.12" font-family="Helvetica,sans-Serif" font-size="10.00">day_layer</text>
</g>
<!-- parameters.day_layer&#45;&gt;process_1 -->
<g id="edge6" class="edge">
<title>parameters.day_layer&#45;&gt;process_1</title>
<path fill="none" stroke="black" d="M526.12,-791.7C521.55,-783.9 516.05,-774.51 510.96,-765.83"/>
<polygon fill="black" stroke="black" points="514.11,-764.27 506.03,-757.41 508.07,-767.81 514.11,-764.27"/>
</g>
<!-- parameters.efficiency -->
<g id="node18" class="node">
<title>parameters.efficiency</title>
<polygon fill="#ffe0b2" stroke="black" points="174.25,-252 116.25,-252 116.25,-216 174.25,-216 174.25,-252"/>
<text xml:space="preserve" text-anchor="middle" x="145.25" y="-230.12" font-family="Helvetica,sans-Serif" font-size="10.00">efficiency</text>
</g>
<!-- parameters.efficiency&#45;&gt;process_6 -->
<g id="edge22" class="edge">
<title>parameters.efficiency&#45;&gt;process_6</title>
<path fill="none" stroke="black" d="M145.25,-215.7C145.25,-208.41 145.25,-199.73 145.25,-191.54"/>
<polygon fill="black" stroke="black" points="148.75,-191.62 145.25,-181.62 141.75,-191.62 148.75,-191.62"/>
</g>
<!-- parameters.gamma_lambda -->
<g id="node19" class="node">
<title>parameters.gamma_lambda</title>
<polygon fill="#ffe0b2" stroke="black" points="622.75,-396 537.75,-396 537.75,-360 622.75,-360 622.75,-396"/>
<text xml:space="preserve" text-anchor="middle" x="580.25" y="-374.12" font-family="Helvetica,sans-Serif" font-size="10.00">gamma_lambda</text>
</g>
<!-- parameters.gamma_lambda&#45;&gt;process_9 -->
<g id="edge37" class="edge">
<title>parameters.gamma_lambda&#45;&gt;process_9</title>
<path fill="none" stroke="black" d="M580.25,-359.7C580.25,-352.41 580.25,-343.73 580.25,-335.54"/>
<polygon fill="black" stroke="black" points="583.75,-335.62 580.25,-325.62 576.75,-335.62 583.75,-335.62"/>
</g>
<!-- parameters.gamma_tau_r -->
<g id="node20" class="node">
<title>parameters.gamma_tau_r</title>
<polygon fill="#ffe0b2" stroke="black" points="332.88,-396 257.62,-396 257.62,-360 332.88,-360 332.88,-396"/>
<text xml:space="preserve" text-anchor="middle" x="295.25" y="-374.12" font-family="Helvetica,sans-Serif" font-size="10.00">gamma_tau_r</text>
</g>
<!-- parameters.gamma_tau_r&#45;&gt;process_5 -->
<g id="edge18" class="edge">
<title>parameters.gamma_tau_r&#45;&gt;process_5</title>
<path fill="none" stroke="black" d="M296.73,-359.7C297.36,-352.41 298.1,-343.73 298.8,-335.54"/>
<polygon fill="black" stroke="black" points="302.29,-335.87 299.65,-325.61 295.31,-335.28 302.29,-335.87"/>
</g>
<!-- parameters.lambda_0 -->
<g id="node21" class="node">
<title>parameters.lambda_0</title>
<polygon fill="#ffe0b2" stroke="black" points="699.25,-396 641.25,-396 641.25,-360 699.25,-360 699.25,-396"/>
<text xml:space="preserve" text-anchor="middle" x="670.25" y="-374.12" font-family="Helvetica,sans-Serif" font-size="10.00">lambda_0</text>
</g>
<!-- parameters.lambda_0&#45;&gt;process_9 -->
<g id="edge36" class="edge">
<title>parameters.lambda_0&#45;&gt;process_9</title>
<path fill="none" stroke="black" d="M648,-359.7C636.97,-351.11 623.46,-340.61 611.41,-331.24"/>
<polygon fill="black" stroke="black" points="613.79,-328.65 603.75,-325.28 609.49,-334.18 613.79,-328.65"/>
</g>
<!-- parameters.night_layer -->
<g id="node22" class="node">
<title>parameters.night_layer</title>
<polygon fill="#ffe0b2" stroke="black" points="646.88,-828 583.62,-828 583.62,-792 646.88,-792 646.88,-828"/>
<text xml:space="preserve" text-anchor="middle" x="615.25" y="-806.12" font-family="Helvetica,sans-Serif" font-size="10.00">night_layer</text>
</g>
<!-- parameters.night_layer&#45;&gt;process_1 -->
<g id="edge7" class="edge">
<title>parameters.night_layer&#45;&gt;process_1</title>
<path fill="none" stroke="black" d="M585.28,-791.52C569.99,-782.6 551.19,-771.63 534.73,-762.03"/>
<polygon fill="black" stroke="black" points="536.55,-759.04 526.15,-757.02 533.02,-765.09 536.55,-759.04"/>
</g>
<!-- parameters.t_ref -->
<g id="node23" class="node">
<title>parameters.t_ref</title>
<polygon fill="#ffe0b2" stroke="black" points="415.25,-684 361.25,-684 361.25,-648 415.25,-648 415.25,-684"/>
<text xml:space="preserve" text-anchor="middle" x="388.25" y="-662.12" font-family="Helvetica,sans-Serif" font-size="10.00">t_ref</text>
</g>
<!-- parameters.t_ref&#45;&gt;process_2 -->
<g id="edge10" class="edge">
<title>parameters.t_ref&#45;&gt;process_2</title>
<path fill="none" stroke="black" d="M414.97,-647.52C428.48,-638.68 445.06,-627.84 459.63,-618.3"/>
<polygon fill="black" stroke="black" points="461.15,-621.49 467.6,-613.09 457.31,-615.63 461.15,-621.49"/>
</g>
<!-- process_4 -->
<g id="node31" class="node">
<title>process_4</title>
<path fill="#f8bbd0" stroke="black" d="M397.75,-540C397.75,-540 318.75,-540 318.75,-540 312.75,-540 306.75,-534 306.75,-528 306.75,-528 306.75,-516 306.75,-516 306.75,-510 312.75,-504 318.75,-504 318.75,-504 397.75,-504 397.75,-504 403.75,-504 409.75,-510 409.75,-516 409.75,-516 409.75,-528 409.75,-528 409.75,-534 403.75,-540 397.75,-540"/>
<text xml:space="preserve" text-anchor="middle" x="358.25" y="-518.12" font-family="Helvetica,sans-Serif" font-size="10.00">gillooly_temperature</text>
</g>
<!-- parameters.t_ref&#45;&gt;process_4 -->
<g id="edge14" class="edge">
<title>parameters.t_ref&#45;&gt;process_4</title>
<path fill="none" stroke="black" d="M384.57,-647.59C379.48,-623.5 370.24,-579.75 364.17,-551.03"/>
<polygon fill="black" stroke="black" points="367.67,-550.65 362.18,-541.59 360.82,-552.1 367.67,-550.65"/>
</g>
<!-- parameters.tau_r_0 -->
<g id="node24" class="node">
<title>parameters.tau_r_0</title>
<polygon fill="#ffe0b2" stroke="black" points="239.25,-396 185.25,-396 185.25,-360 239.25,-360 239.25,-396"/>
<text xml:space="preserve" text-anchor="middle" x="212.25" y="-374.12" font-family="Helvetica,sans-Serif" font-size="10.00">tau_r_0</text>
</g>
<!-- parameters.tau_r_0&#45;&gt;process_5 -->
<g id="edge17" class="edge">
<title>parameters.tau_r_0&#45;&gt;process_5</title>
<path fill="none" stroke="black" d="M234.25,-359.7C245.16,-351.11 258.52,-340.61 270.43,-331.24"/>
<polygon fill="black" stroke="black" points="272.31,-334.22 278,-325.28 267.98,-328.71 272.31,-334.22"/>
</g>
<!-- state.biomass -->
<g id="node25" class="node">
<title>state.biomass</title>
<polygon fill="#c8e6c9" stroke="black" stroke-width="2" points="771.25,-396 717.25,-396 717.25,-360 771.25,-360 771.25,-396"/>
<text xml:space="preserve" text-anchor="middle" x="744.25" y="-374.12" font-family="Helvetica,sans-Serif" font-size="10.00">biomass</text>
</g>
<!-- state.biomass&#45;&gt;process_9 -->
<g id="edge34" class="edge">
<title>state.biomass&#45;&gt;process_9</title>
<path fill="none" stroke="black" d="M716.8,-363.87C713.92,-362.54 711.03,-361.23 708.25,-360 678.04,-346.62 643.39,-332.34 617.77,-321.98"/>
<polygon fill="black" stroke="black" points="619.37,-318.85 608.79,-318.35 616.75,-325.34 619.37,-318.85"/>
</g>
<!-- state.production -->
<g id="node26" class="node">
<title>state.production</title>
<polygon fill="#c8e6c9" stroke="black" stroke-width="2" points="253.75,-252 192.75,-252 192.75,-216 253.75,-216 253.75,-252"/>
<text xml:space="preserve" text-anchor="middle" x="223.25" y="-230.12" font-family="Helvetica,sans-Serif" font-size="10.00">production</text>
</g>
<!-- state.production&#45;&gt;process_6 -->
<g id="edge23" class="edge">
<title>state.production&#45;&gt;process_6</title>
<path fill="none" stroke="black" d="M203.97,-215.7C194.59,-207.28 183.16,-197.02 172.87,-187.79"/>
<polygon fill="black" stroke="black" points="175.49,-185.43 165.71,-181.36 170.81,-190.64 175.49,-185.43"/>
</g>
<!-- state.production&#45;&gt;process_7 -->
<g id="edge25" class="edge">
<title>state.production&#45;&gt;process_7</title>
<path fill="none" stroke="black" d="M231.65,-215.7C235.36,-208.07 239.81,-198.92 243.94,-190.4"/>
<polygon fill="black" stroke="black" points="247.06,-191.99 248.28,-181.47 240.76,-188.93 247.06,-191.99"/>
</g>
<!-- state.production&#45;&gt;process_8 -->
<g id="edge29" class="edge">
<title>state.production&#45;&gt;process_8</title>
<path fill="none" stroke="black" d="M254.19,-217.64C273.21,-208.2 297.91,-195.94 319.09,-185.42"/>
<polygon fill="black" stroke="black" points="320.41,-188.67 327.81,-181.09 317.29,-182.4 320.41,-188.67"/>
</g>
<!-- process_0&#45;&gt;derived.day_length -->
<g id="edge3" class="edge">
<title>process_0&#45;&gt;derived.day_length</title>
<path fill="none" stroke="black" d="M366.25,-863.7C366.25,-856.41 366.25,-847.73 366.25,-839.54"/>
<polygon fill="black" stroke="black" points="369.75,-839.62 366.25,-829.62 362.75,-839.62 369.75,-839.62"/>
</g>
<!-- process_1&#45;&gt;derived.mean_temperature -->
<g id="edge8" class="edge">
<title>process_1&#45;&gt;derived.mean_temperature</title>
<path fill="none" stroke="black" d="M495.25,-719.7C495.25,-712.41 495.25,-703.73 495.25,-695.54"/>
<polygon fill="black" stroke="black" points="498.75,-695.62 495.25,-685.62 491.75,-695.62 498.75,-695.62"/>
</g>
<!-- process_2&#45;&gt;derived.thresholded_temperature -->
<g id="edge11" class="edge">
<title>process_2&#45;&gt;derived.thresholded_temperature</title>
<path fill="none" stroke="black" d="M496.49,-575.7C497.01,-568.41 497.63,-559.73 498.21,-551.54"/>
<polygon fill="black" stroke="black" points="501.7,-551.84 498.92,-541.61 494.72,-551.34 501.7,-551.84"/>
</g>
<!-- process_3&#45;&gt;derived.temp_norm -->
<g id="edge13" class="edge">
<title>process_3&#45;&gt;derived.temp_norm</title>
<path fill="none" stroke="black" d="M490.28,-431.7C489.02,-424.32 487.51,-415.52 486.09,-407.25"/>
<polygon fill="black" stroke="black" points="489.58,-406.86 484.44,-397.6 482.68,-408.04 489.58,-406.86"/>
</g>
<!-- process_4&#45;&gt;derived.t_ref_norm -->
<g id="edge15" class="edge">
<title>process_4&#45;&gt;derived.t_ref_norm</title>
<path fill="none" stroke="black" d="M361.93,-503.59C367.02,-479.5 376.26,-435.75 382.33,-407.03"/>
<polygon fill="black" stroke="black" points="385.68,-408.1 384.32,-397.59 378.83,-406.65 385.68,-408.1"/>
</g>
<!-- process_5&#45;&gt;derived.rec_age -->
<g id="edge20" class="edge">
<title>process_5&#45;&gt;derived.rec_age</title>
<path fill="none" stroke="black" d="M301.25,-287.7C301.25,-280.41 301.25,-271.73 301.25,-263.54"/>
<polygon fill="black" stroke="black" points="304.75,-263.62 301.25,-253.62 297.75,-263.62 304.75,-263.62"/>
</g>
<!-- process_6&#45;&gt;derived.npp_injection -->
<g id="edge24" class="edge">
<title>process_6&#45;&gt;derived.npp_injection</title>
<path fill="none" stroke="black" d="M145.25,-143.7C145.25,-136.41 145.25,-127.73 145.25,-119.54"/>
<polygon fill="black" stroke="black" points="148.75,-119.62 145.25,-109.62 141.75,-119.62 148.75,-119.62"/>
</g>
<!-- process_7&#45;&gt;derived.aging_flow -->
<g id="edge28" class="edge">
<title>process_7&#45;&gt;derived.aging_flow</title>
<path fill="none" stroke="black" d="M253.79,-143.7C252.31,-136.32 250.55,-127.52 248.9,-119.25"/>
<polygon fill="black" stroke="black" points="252.36,-118.71 246.97,-109.59 245.5,-120.08 252.36,-118.71"/>
</g>
<!-- process_8&#45;&gt;derived.recruitment_gain -->
<g id="edge33" class="edge">
<title>process_8&#45;&gt;derived.recruitment_gain</title>
<path fill="none" stroke="black" d="M398.22,-143.52C417.65,-133.52 442.07,-120.95 462.15,-110.61"/>
<polygon fill="black" stroke="black" points="463.57,-113.82 470.86,-106.13 460.37,-107.59 463.57,-113.82"/>
</g>
<!-- process_8&#45;&gt;derived.recruitment_prod_loss -->
<g id="edge32" class="edge">
<title>process_8&#45;&gt;derived.recruitment_prod_loss</title>
<path fill="none" stroke="black" d="M364.25,-143.7C364.25,-136.41 364.25,-127.73 364.25,-119.54"/>
<polygon fill="black" stroke="black" points="367.75,-119.62 364.25,-109.62 360.75,-119.62 367.75,-119.62"/>
</g>
<!-- process_9&#45;&gt;derived.mortality_flux -->
<g id="edge39" class="edge">
<title>process_9&#45;&gt;derived.mortality_flux</title>
<path fill="none" stroke="black" d="M580.25,-287.59C580.25,-263.61 580.25,-220.14 580.25,-191.42"/>
<polygon fill="black" stroke="black" points="583.75,-191.62 580.25,-181.62 576.75,-191.62 583.75,-191.62"/>
</g>
</g>
</svg>
