<?xml version="1.0" encoding="UTF-8" standalone="no"?>
<!DOCTYPE svg PUBLIC "-//W3C//DTD SVG 1.1//EN"
 "http://www.w3.org/Graphics/SVG/1.1/DTD/svg11.dtd">
<!-- Generated by graphviz version 14.1.3 (20260303.0454)
 -->
<!-- Title: optimization Pages: 1 -->
<svg width="559pt" height="160pt"
 viewBox="0.00 0.00 559.00 160.00" xmlns="http://www.w3.org/2000/svg" xmlns:xlink="http://www.w3.org/1999/xlink">
<g id="graph0" class="graph" transform="scale(1 1) rotate(0) translate(21.6 138.6)">
<title>optimization</title>
<!-- bp -->
<g id="node1" class="node">
<title>bp</title>
<polygon fill="#1b4965" stroke="black" points="58.75,-117 0,-117 0,-81 58.75,-81 58.75,-117"/>
<text xml:space="preserve" text-anchor="middle" x="29.38" y="-94.55" font-family="Helvetica,sans-Serif" font-size="11.00" fill="white">Blueprint</text>
</g>
<!-- compile -->
<g id="node3" class="node">
<title>compile</title>
<path fill="#e8833a" stroke="black" d="M170.75,-90C170.75,-90 106.75,-90 106.75,-90 100.75,-90 94.75,-84 94.75,-78 94.75,-78 94.75,-66 94.75,-66 94.75,-60 100.75,-54 106.75,-54 106.75,-54 170.75,-54 170.75,-54 176.75,-54 182.75,-60 182.75,-66 182.75,-66 182.75,-78 182.75,-78 182.75,-84 176.75,-90 170.75,-90"/>
<text xml:space="preserve" text-anchor="middle" x="138.75" y="-67.55" font-family="Helvetica,sans-Serif" font-size="11.00" fill="white">compile_model</text>
</g>
<!-- bp&#45;&gt;compile -->
<g id="edge1" class="edge">
<title>bp&#45;&gt;compile</title>
<path fill="none" stroke="#718096" d="M59.15,-91.76C66.67,-89.87 75.02,-87.77 83.39,-85.67"/>
<polygon fill="#718096" stroke="#718096" points="84.03,-89.12 92.88,-83.28 82.33,-82.33 84.03,-89.12"/>
</g>
<!-- cfg -->
<g id="node2" class="node">
<title>cfg</title>
<polygon fill="#1b4965" stroke="black" points="56.38,-63 2.38,-63 2.38,-27 56.38,-27 56.38,-63"/>
<text xml:space="preserve" text-anchor="middle" x="29.38" y="-40.55" font-family="Helvetica,sans-Serif" font-size="11.00" fill="white">Config</text>
</g>
<!-- cfg&#45;&gt;compile -->
<g id="edge2" class="edge">
<title>cfg&#45;&gt;compile</title>
<path fill="none" stroke="#718096" d="M56.64,-51.6C64.85,-53.67 74.23,-56.03 83.63,-58.39"/>
<polygon fill="#718096" stroke="#718096" points="82.58,-61.74 93.14,-60.78 84.29,-54.95 82.58,-61.74"/>
</g>
<!-- cm -->
<g id="node4" class="node">
<title>cm</title>
<polygon fill="#1b4965" stroke="black" points="309.75,-90 218.75,-90 218.75,-54 309.75,-54 309.75,-90"/>
<text xml:space="preserve" text-anchor="middle" x="264.25" y="-67.55" font-family="Helvetica,sans-Serif" font-size="11.00" fill="white">CompiledModel</text>
</g>
<!-- compile&#45;&gt;cm -->
<g id="edge3" class="edge">
<title>compile&#45;&gt;cm</title>
<path fill="none" stroke="#718096" d="M182.94,-72C190.79,-72 199.08,-72 207.24,-72"/>
<polygon fill="#718096" stroke="#718096" points="207.1,-75.5 217.1,-72 207.1,-68.5 207.1,-75.5"/>
</g>
<!-- opt -->
<g id="node6" class="node">
<title>opt</title>
<path fill="#e8833a" stroke="black" d="M395.5,-63C395.5,-63 357.75,-63 357.75,-63 351.75,-63 345.75,-57 345.75,-51 345.75,-51 345.75,-39 345.75,-39 345.75,-33 351.75,-27 357.75,-27 357.75,-27 395.5,-27 395.5,-27 401.5,-27 407.5,-33 407.5,-39 407.5,-39 407.5,-51 407.5,-51 407.5,-57 401.5,-63 395.5,-63"/>
<text xml:space="preserve" text-anchor="middle" x="376.62" y="-40.55" font-family="Helvetica,sans-Serif" font-size="11.00" fill="white">Optimizer</text>
</g>
<!-- cm&#45;&gt;opt -->
<g id="edge4" class="edge">
<title>cm&#45;&gt;opt</title>
<path fill="none" stroke="#718096" d="M310.14,-61.02C318.08,-59.08 326.32,-57.06 334.16,-55.14"/>
<polygon fill="#718096" stroke="#718096" points="334.93,-58.56 343.81,-52.78 333.27,-51.76 334.93,-58.56"/>
</g>
<!-- obj -->
<g id="node5" class="node">
<title>obj</title>
<polygon fill="#1b4965" stroke="black" points="297,-36 231.5,-36 231.5,0 297,0 297,-36"/>
<text xml:space="preserve" text-anchor="middle" x="264.25" y="-13.55" font-family="Helvetica,sans-Serif" font-size="11.00" fill="white">Objectives</text>
</g>
<!-- obj&#45;&gt;opt -->
<g id="edge5" class="edge">
<title>obj&#45;&gt;opt</title>
<path fill="none" stroke="#718096" d="M297.47,-25.88C309.07,-28.72 322.31,-31.96 334.55,-34.95"/>
<polygon fill="#718096" stroke="#718096" points="333.43,-38.28 343.97,-37.26 335.09,-31.48 333.43,-38.28"/>
</g>
<!-- res -->
<g id="node7" class="node">
<title>res</title>
<polygon fill="#62b6cb" stroke="black" points="515.75,-63 443.5,-63 443.5,-27 515.75,-27 515.75,-63"/>
<text xml:space="preserve" text-anchor="middle" x="479.62" y="-46.55" font-family="Helvetica,sans-Serif" font-size="11.00" fill="white">Optimized</text>
<text xml:space="preserve" text-anchor="middle" x="479.62" y="-34.55" font-family="Helvetica,sans-Serif" font-size="11.00" fill="white">Parameters</text>
</g>
<!-- opt&#45;&gt;res -->
<g id="edge6" class="edge">
<title>opt&#45;&gt;res</title>
<path fill="none" stroke="#718096" d="M407.93,-45C415.43,-45 423.65,-45 431.74,-45"/>
<polygon fill="#718096" stroke="#718096" points="431.5,-48.5 441.5,-45 431.5,-41.5 431.5,-48.5"/>
</g>
</g>
</svg>
