<?xml version="1.0" encoding="UTF-8" standalone="no"?>
<!DOCTYPE svg PUBLIC "-//W3C//DTD SVG 1.1//EN"
 "http://www.w3.org/Graphics/SVG/1.1/DTD/svg11.dtd">
<!-- Generated by graphviz version 14.1.3 (20260303.0454)
 -->
<!-- Title: pipeline Pages: 1 -->
<svg width="559pt" height="133pt"
 viewBox="0.00 0.00 559.00 133.00" xmlns="http://www.w3.org/2000/svg" xmlns:xlink="http://www.w3.org/1999/xlink">
<g id="graph0" class="graph" transform="scale(1 1) rotate(0) translate(21.6 111.6)">
<title>pipeline</title>
<!-- bp -->
<g id="node1" class="node">
<title>bp</title>
<polygon fill="#1b4965" stroke="black" points="58.75,-90 0,-90 0,-54 58.75,-54 58.75,-90"/>
<text xml:space="preserve" text-anchor="middle" x="29.38" y="-73.55" font-family="Helvetica,sans-Serif" font-size="11.00" fill="white">Blueprint</text>
<text xml:space="preserve" text-anchor="middle" x="29.38" y="-61.55" font-family="Helvetica,sans-Serif" font-size="11.00" fill="white">(YAML)</text>
</g>
<!-- compile -->
<g id="node3" class="node">
<title>compile</title>
<path fill="#e8833a" stroke="black" d="M170.75,-63C170.75,-63 106.75,-63 106.75,-63 100.75,-63 94.75,-57 94.75,-51 94.75,-51 94.75,-39 94.75,-39 94.75,-33 100.75,-27 106.75,-27 106.75,-27 170.75,-27 170.75,-27 176.75,-27 182.75,-33 182.75,-39 182.75,-39 182.75,-51 182.75,-51 182.75,-57 176.75,-63 170.75,-63"/>
<text xml:space="preserve" text-anchor="middle" x="138.75" y="-40.55" font-family="Helvetica,sans-Serif" font-size="11.00" fill="white">compile_model</text>
</g>
<!-- bp&#45;&gt;compile -->
<g id="edge1" class="edge">
<title>bp&#45;&gt;compile</title>
<path fill="none" stroke="#718096" d="M59.15,-64.76C66.67,-62.87 75.02,-60.77 83.39,-58.67"/>
<polygon fill="#718096" stroke="#718096" points="84.03,-62.12 92.88,-56.28 82.33,-55.33 84.03,-62.12"/>
</g>
<!-- cfg -->
<g id="node2" class="node">
<title>cfg</title>
<polygon fill="#1b4965" stroke="black" points="56.38,-36 2.38,-36 2.38,0 56.38,0 56.38,-36"/>
<text xml:space="preserve" text-anchor="middle" x="29.38" y="-13.55" font-family="Helvetica,sans-Serif" font-size="11.00" fill="white">Config</text>
</g>
<!-- cfg&#45;&gt;compile -->
<g id="edge2" class="edge">
<title>cfg&#45;&gt;compile</title>
<path fill="none" stroke="#718096" d="M56.64,-24.6C64.85,-26.67 74.23,-29.03 83.63,-31.39"/>
<polygon fill="#718096" stroke="#718096" points="82.58,-34.74 93.14,-33.78 84.29,-27.95 82.58,-34.74"/>
</g>
<!-- cm -->
<g id="node4" class="node">
<title>cm</title>
<polygon fill="#1b4965" stroke="black" points="309.75,-63 218.75,-63 218.75,-27 309.75,-27 309.75,-63"/>
<text xml:space="preserve" text-anchor="middle" x="264.25" y="-40.55" font-family="Helvetica,sans-Serif" font-size="11.00" fill="white">CompiledModel</text>
</g>
<!-- compile&#45;&gt;cm -->
<g id="edge3" class="edge">
<title>compile&#45;&gt;cm</title>
<path fill="none" stroke="#718096" d="M182.94,-45C190.79,-45 199.08,-45 207.24,-45"/>
<polygon fill="#718096" stroke="#718096" points="207.1,-48.5 217.1,-45 207.1,-41.5 207.1,-48.5"/>
</g>
<!-- run -->
<g id="node5" class="node">
<title>run</title>
<path fill="#e8833a" stroke="black" d="M414.25,-63C414.25,-63 357.75,-63 357.75,-63 351.75,-63 345.75,-57 345.75,-51 345.75,-51 345.75,-39 345.75,-39 345.75,-33 351.75,-27 357.75,-27 357.75,-27 414.25,-27 414.25,-27 420.25,-27 426.25,-33 426.25,-39 426.25,-39 426.25,-51 426.25,-51 426.25,-57 420.25,-63 414.25,-63"/>
<text xml:space="preserve" text-anchor="middle" x="386" y="-40.55" font-family="Helvetica,sans-Serif" font-size="11.00" fill="white">simulate / run</text>
</g>
<!-- cm&#45;&gt;run -->
<g id="edge4" class="edge">
<title>cm&#45;&gt;run</title>
<path fill="none" stroke="#718096" d="M310.18,-45C317.94,-45 326.06,-45 333.96,-45"/>
<polygon fill="#718096" stroke="#718096" points="333.82,-48.5 343.82,-45 333.82,-41.5 333.82,-48.5"/>
</g>
<!-- out -->
<g id="node6" class="node">
<title>out</title>
<polygon fill="#62b6cb" stroke="black" points="516.25,-63 462.25,-63 462.25,-27 516.25,-27 516.25,-63"/>
<text xml:space="preserve" text-anchor="middle" x="489.25" y="-40.55" font-family="Helvetica,sans-Serif" font-size="11.00" fill="white">Outputs</text>
</g>
<!-- run&#45;&gt;out -->
<g id="edge5" class="edge">
<title>run&#45;&gt;out</title>
<path fill="none" stroke="#718096" d="M426.73,-45C434.6,-45 442.84,-45 450.64,-45"/>
<polygon fill="#718096" stroke="#718096" points="450.52,-48.5 460.52,-45 450.52,-41.5 450.52,-48.5"/>
</g>
</g>
</svg>
