<?xml version="1.0" encoding="UTF-8" standalone="no"?>
<!DOCTYPE svg PUBLIC "-//W3C//DTD SVG 1.1//EN"
 "http://www.w3.org/Graphics/SVG/1.1/DTD/svg11.dtd">
<!-- Generated by graphviz version 14.1.3 (20260303.0454)
 -->
<!-- Title: timestep Pages: 1 -->
<svg width="506pt" height="187pt"
 viewBox="0.00 0.00 506.00 187.00" xmlns="http://www.w3.org/2000/svg" xmlns:xlink="http://www.w3.org/1999/xlink">
<g id="graph0" class="graph" transform="scale(1 1) rotate(0) translate(21.6 165.6)">
<title>timestep</title>
<!-- state -->
<g id="node1" class="node">
<title>state</title>
<polygon fill="#1b4965" stroke="black" points="63.12,-36 9.12,-36 9.12,0 63.12,0 63.12,-36"/>
<text xml:space="preserve" text-anchor="middle" x="36.12" y="-13.55" font-family="Helvetica,sans-Serif" font-size="11.00" fill="white">State</text>
</g>
<!-- proc -->
<g id="node4" class="node">
<title>proc</title>
<path fill="#e8833a" stroke="black" d="M151.25,-88C151.25,-88 120.25,-88 120.25,-88 114.25,-88 108.25,-82 108.25,-76 108.25,-76 108.25,-64 108.25,-64 108.25,-58 114.25,-52 120.25,-52 120.25,-52 151.25,-52 151.25,-52 157.25,-52 163.25,-58 163.25,-64 163.25,-64 163.25,-76 163.25,-76 163.25,-82 157.25,-88 151.25,-88"/>
<text xml:space="preserve" text-anchor="middle" x="135.75" y="-71.55" font-family="Helvetica,sans-Serif" font-size="11.00" fill="white">Process</text>
<text xml:space="preserve" text-anchor="middle" x="135.75" y="-59.55" font-family="Helvetica,sans-Serif" font-size="11.00" fill="white">DAG</text>
</g>
<!-- state&#45;&gt;proc -->
<g id="edge1" class="edge">
<title>state&#45;&gt;proc</title>
<path fill="none" stroke="#718096" d="M63.54,-32.07C74.09,-37.69 86.42,-44.26 97.83,-50.34"/>
<polygon fill="#718096" stroke="#718096" points="96.16,-53.41 106.63,-55.02 99.45,-47.23 96.16,-53.41"/>
</g>
<!-- euler -->
<g id="node6" class="node">
<title>euler</title>
<path fill="#e8833a" stroke="black" d="M347.25,-61C347.25,-61 317.25,-61 317.25,-61 311.25,-61 305.25,-55 305.25,-49 305.25,-49 305.25,-37 305.25,-37 305.25,-31 311.25,-25 317.25,-25 317.25,-25 347.25,-25 347.25,-25 353.25,-25 359.25,-31 359.25,-37 359.25,-37 359.25,-49 359.25,-49 359.25,-55 353.25,-61 347.25,-61"/>
<text xml:space="preserve" text-anchor="middle" x="332.25" y="-44.55" font-family="Helvetica,sans-Serif" font-size="11.00" fill="white">Euler</text>
<text xml:space="preserve" text-anchor="middle" x="332.25" y="-32.55" font-family="Helvetica,sans-Serif" font-size="11.00" fill="white">Solver</text>
</g>
<!-- state&#45;&gt;euler -->
<g id="edge6" class="edge">
<title>state&#45;&gt;euler</title>
<path fill="none" stroke="#718096" stroke-dasharray="5,2" d="M63.49,-20.24C115.83,-24.69 233.05,-34.65 293.54,-39.79"/>
<polygon fill="#718096" stroke="#718096" points="293.07,-43.27 303.33,-40.63 293.67,-36.29 293.07,-43.27"/>
</g>
<!-- params -->
<g id="node2" class="node">
<title>params</title>
<polygon fill="#1b4965" stroke="black" points="72.25,-144 0,-144 0,-108 72.25,-108 72.25,-144"/>
<text xml:space="preserve" text-anchor="middle" x="36.12" y="-121.55" font-family="Helvetica,sans-Serif" font-size="11.00" fill="white">Parameters</text>
</g>
<!-- params&#45;&gt;proc -->
<g id="edge2" class="edge">
<title>params&#45;&gt;proc</title>
<path fill="none" stroke="#718096" d="M69.36,-107.51C78.5,-102.27 88.51,-96.52 97.9,-91.14"/>
<polygon fill="#718096" stroke="#718096" points="99.52,-94.24 106.45,-86.23 96.04,-88.17 99.52,-94.24"/>
</g>
<!-- forcings -->
<g id="node3" class="node">
<title>forcings</title>
<polygon fill="#1b4965" stroke="black" points="64.75,-90 7.5,-90 7.5,-54 64.75,-54 64.75,-90"/>
<text xml:space="preserve" text-anchor="middle" x="36.12" y="-67.55" font-family="Helvetica,sans-Serif" font-size="11.00" fill="white">Forcings</text>
</g>
<!-- forcings&#45;&gt;proc -->
<g id="edge3" class="edge">
<title>forcings&#45;&gt;proc</title>
<path fill="none" stroke="#718096" d="M65.1,-71.43C74.84,-71.23 85.95,-71 96.39,-70.79"/>
<polygon fill="#718096" stroke="#718096" points="96.34,-74.29 106.27,-70.58 96.2,-67.29 96.34,-74.29"/>
</g>
<!-- tend -->
<g id="node5" class="node">
<title>tend</title>
<polygon fill="#62b6cb" stroke="black" points="269.25,-86 199.25,-86 199.25,-50 269.25,-50 269.25,-86"/>
<text xml:space="preserve" text-anchor="middle" x="234.25" y="-63.55" font-family="Helvetica,sans-Serif" font-size="11.00" fill="white">Tendencies</text>
</g>
<!-- proc&#45;&gt;tend -->
<g id="edge4" class="edge">
<title>proc&#45;&gt;tend</title>
<path fill="none" stroke="#718096" d="M163.63,-69.44C171.06,-69.29 179.34,-69.12 187.52,-68.95"/>
<polygon fill="#718096" stroke="#718096" points="187.48,-72.45 197.4,-68.74 187.33,-65.45 187.48,-72.45"/>
</g>
<!-- tend&#45;&gt;euler -->
<g id="edge5" class="edge">
<title>tend&#45;&gt;euler</title>
<path fill="none" stroke="#718096" d="M269.64,-59.05C277.54,-56.99 285.97,-54.79 293.98,-52.7"/>
<polygon fill="#718096" stroke="#718096" points="294.67,-56.14 303.47,-50.23 292.91,-49.37 294.67,-56.14"/>
</g>
<!-- state_next -->
<g id="node7" class="node">
<title>state_next</title>
<polygon fill="#1b4965" stroke="black" points="463,-61 395.25,-61 395.25,-25 463,-25 463,-61"/>
<text xml:space="preserve" text-anchor="middle" x="429.12" y="-38.55" font-family="Helvetica,sans-Serif" font-size="11.00" fill="white">State (t+1)</text>
</g>
<!-- euler&#45;&gt;state_next -->
<g id="edge7" class="edge">
<title>euler&#45;&gt;state_next</title>
<path fill="none" stroke="#718096" d="M359.68,-43C367.13,-43 375.45,-43 383.65,-43"/>
<polygon fill="#718096" stroke="#718096" points="383.55,-46.5 393.55,-43 383.55,-39.5 383.55,-46.5"/>
</g>
</g>
</svg>
